<svg id="previewSVG" xmlns="http://www.w3.org/2000/svg" version="1.1" width="4000" height="2000" viewBox="0 0 4000 2000" background="none">

    <defs>
        <pattern id="previewPattern" patternUnits="userSpaceOnUse" y="0" x="0" width="300" height="260">
            <g id="previewTransformGroup" transform="scale(1)"><svg width="300" height="260" viewBox="0 0 300 260" version="1.1" shape-rendering="geometricPrecision" image-rendering="optimizeQuality" fill-rule="evenodd" clip-rule="evenodd"><g><g transform="scale(0.001)"><rect onclick="top.selectObj('0')" id="preview_F0_0" width="300000" height="260000" fill="#1F2424"></rect><g id="preview_L1_0" fill="none" stroke-width="500" stroke-dasharray="1500 1000" stroke="#4C5759"><path d="M2813 1625l31874 18416m5626 3250l31874 18416m5626 3250l31874 18416m5626 3250l31874 18416m5626 3250l31874 18416m5626 3250l31874 18416m5626 3250l31874 18416m5626 3250l31874 18416"></path><path d="M77813 1625l31874 18416m5625 3250l31874 18416m5626 3250l31874 18416m5626 3250l31874 18416m5626 3250l31874 18416m5626 3250l31874 18416"></path><path d="M152813 1625l31874 18416m5625 3250l31874 18416m5626 3250l31874 18416m5626 3250l31874 18416"></path><path d="M227813 1625l31874 18416m5626 3250l31874 18416"></path><path d="M2813 44959l31874 18416m5626 3250l31874 18416m5626 3250l31874 18416m5625 3250l31874 18416m5626 3250l31874 18416m5625 3250l31874 18416m5626 3250l31874 18416m5626 3250l31874 18416"></path><path d="M2813 88292l31874 18416m5626 3250l31874 18416m5626 3250l31874 18416m5626 3250l31874 18416m5626 3250l31874 18416m5626 3250l31874 18416m5626 3250l31874 18416m5626 3250l31874 18416"></path><path d="M2813 131625l31874 18416m5626 3250l31874 18416m5626 3250l31874 18416m5626 3250l31874 18416m5626 3250l31874 18416m5625 3250l31874 18416"></path><path d="M2813 174959l31874 18416m5626 3250l31874 18416m5626 3250l31874 18416m5625 3250l31874 18416"></path><path d="M2813 218292l31874 18416m5626 3250l31874 18416"></path><path d="M2813 258375l31874 -18416m5626 -3250l31874 -18416m5626 -3250l31874 -18416m5626 -3250l31874 -18416m5626 -3250l31874 -18416m5626 -3250l31874 -18416m5626 -3250l31874 -18416m5626 -3250l31874 -18416"></path><path d="M77813 258375l31874 -18416m5625 -3250l31874 -18416m5626 -3250l31874 -18416m5626 -3250l31874 -18416m5626 -3250l31874 -18416m5626 -3250l31874 -18416"></path><path d="M152813 258375l31874 -18416m5625 -3250l31874 -18416m5626 -3250l31874 -18416m5626 -3250l31874 -18416"></path><path d="M227813 258375l31874 -18416m5626 -3250l31874 -18416"></path><path d="M2813 215042l31874 -18416m5626 -3250l31874 -18416m5626 -3250l31874 -18416m5625 -3250l31874 -18416m5626 -3250l31874 -18416m5625 -3250l31874 -18416m5626 -3250l31874 -18416m5626 -3250l31874 -18416"></path><path d="M2813 171708l31874 -18416m5626 -3250l31874 -18416m5626 -3250l31874 -18416m5626 -3250l31874 -18416m5626 -3250l31874 -18416m5626 -3250l31874 -18416m5626 -3250l31874 -18416m5626 -3250l31874 -18416"></path><path d="M2813 128375l31874 -18416m5626 -3250l31874 -18416m5626 -3250l31874 -18416m5626 -3250l31874 -18416m5626 -3250l31874 -18416m5626 -3250l31874 -18416"></path><path d="M2813 85041l31874 -18416m5626 -3250l31874 -18416m5626 -3250l31874 -18416m5625 -3250l31874 -18416"></path><path d="M2813 41708l31874 -18416m5626 -3250l31874 -18416"></path><path d="M150000 3250l0 36833m0 6500l0 36833m0 6500l0 36833m0 6500l0 36833m0 6500l0 36833m0 6500l0 36833"></path><path d="M112500 0l0 18417m0 6500l0 36833m0 6500l0 36833m0 6500l0 36833m0 6500l0 36833m0 6500l0 36833m0 6500l0 18417"></path><path d="M75000 3250l0 36833m0 6500l0 36833m0 6500l0 36833m0 6500l0 36833m0 6500l0 36833m0 6500l0 36833"></path><path d="M37500 0l0 18417m0 6500l0 36833m0 6500l0 36833m0 6500l0 36833m0 6500l0 36833m0 6500l0 36833m0 6500l0 18417"></path><path d="M0 3250l0 36833m0 6500l0 36833m0 6500l0 36833m0 6500l0 36833m0 6500l0 36833m0 6500l0 36833"></path><path d="M187500 0l0 18417m0 6500l0 36833m0 6500l0 36833m0 6500l0 36833m0 6500l0 36833m0 6500l0 36833m0 6500l0 18417"></path><path d="M225000 3250l0 36833m0 6500l0 36833m0 6500l0 36833m0 6500l0 36833m0 6500l0 36833m0 6500l0 36833"></path><path d="M262500 0l0 18417m0 6500l0 36833m0 6500l0 36833m0 6500l0 36833m0 6500l0 36833m0 6500l0 36833m0 6500l0 18417"></path><path d="M300000 3250l0 36833m0 6500l0 36833m0 6500l0 36833m0 6500l0 36833m0 6500l0 36833m0 6500l0 36833"></path></g><g id="preview_F1_0" fill="#4C5759"><ellipse rx="1107" ry="1108"></ellipse><ellipse cy="43333" rx="1107" ry="1108"></ellipse><ellipse cy="86667" rx="1107" ry="1108"></ellipse><ellipse cy="130000" rx="1107" ry="1108"></ellipse><ellipse cy="173334" rx="1107" ry="1108"></ellipse><ellipse cy="216667" rx="1107" ry="1108"></ellipse><ellipse cy="260000" rx="1107" ry="1108"></ellipse><ellipse cx="37500" cy="21667" rx="1107" ry="1108"></ellipse><ellipse cx="37500" cy="65000" rx="1107" ry="1108"></ellipse><ellipse cx="37500" cy="108333" rx="1107" ry="1108"></ellipse><ellipse cx="37500" cy="151667" rx="1107" ry="1108"></ellipse><ellipse cx="37500" cy="195000" rx="1107" ry="1108"></ellipse><ellipse cx="37500" cy="238334" rx="1107" ry="1108"></ellipse><ellipse cx="75000" rx="1107" ry="1108"></ellipse><ellipse cx="75000" cy="43333" rx="1107" ry="1108"></ellipse><ellipse cx="75000" cy="86667" rx="1107" ry="1108"></ellipse><ellipse cx="75000" cy="130000" rx="1107" ry="1108"></ellipse><ellipse cx="75000" cy="173334" rx="1107" ry="1108"></ellipse><ellipse cx="75000" cy="216667" rx="1107" ry="1108"></ellipse><ellipse cx="75000" cy="260000" rx="1107" ry="1108"></ellipse><ellipse cx="112500" cy="21667" rx="1107" ry="1108"></ellipse><ellipse cx="112500" cy="65000" rx="1107" ry="1108"></ellipse><ellipse cx="112500" cy="108333" rx="1107" ry="1108"></ellipse><ellipse cx="112500" cy="151667" rx="1107" ry="1108"></ellipse><ellipse cx="112500" cy="195000" rx="1107" ry="1108"></ellipse><ellipse cx="112500" cy="238334" rx="1107" ry="1108"></ellipse><ellipse cx="150000" rx="1107" ry="1108"></ellipse><ellipse cx="150000" cy="43333" rx="1107" ry="1108"></ellipse><ellipse cx="150000" cy="86667" rx="1107" ry="1108"></ellipse><ellipse cx="150000" cy="130000" rx="1107" ry="1108"></ellipse><ellipse cx="150000" cy="173334" rx="1107" ry="1108"></ellipse><ellipse cx="150000" cy="216667" rx="1107" ry="1108"></ellipse><ellipse cx="150000" cy="260000" rx="1107" ry="1108"></ellipse><ellipse cx="187500" cy="21667" rx="1107" ry="1108"></ellipse><ellipse cx="187500" cy="65000" rx="1107" ry="1108"></ellipse><ellipse cx="187500" cy="108333" rx="1107" ry="1108"></ellipse><ellipse cx="187500" cy="151667" rx="1107" ry="1108"></ellipse><ellipse cx="187500" cy="195000" rx="1107" ry="1108"></ellipse><ellipse cx="187500" cy="238334" rx="1107" ry="1108"></ellipse><ellipse cx="225000" rx="1107" ry="1108"></ellipse><ellipse cx="225000" cy="43333" rx="1107" ry="1108"></ellipse><ellipse cx="225000" cy="86667" rx="1107" ry="1108"></ellipse><ellipse cx="225000" cy="130000" rx="1107" ry="1108"></ellipse><ellipse cx="225000" cy="173334" rx="1107" ry="1108"></ellipse><ellipse cx="225000" cy="216667" rx="1107" ry="1108"></ellipse><ellipse cx="225000" cy="260000" rx="1107" ry="1108"></ellipse><ellipse cx="262500" cy="21667" rx="1107" ry="1108"></ellipse><ellipse cx="262500" cy="65000" rx="1107" ry="1108"></ellipse><ellipse cx="262500" cy="108333" rx="1107" ry="1108"></ellipse><ellipse cx="262500" cy="151667" rx="1107" ry="1108"></ellipse><ellipse cx="262500" cy="195000" rx="1107" ry="1108"></ellipse><ellipse cx="262500" cy="238334" rx="1107" ry="1108"></ellipse><ellipse cx="300000" rx="1107" ry="1108"></ellipse><ellipse cx="300000" cy="43333" rx="1107" ry="1108"></ellipse><ellipse cx="300000" cy="86667" rx="1107" ry="1108"></ellipse><ellipse cx="300000" cy="130000" rx="1107" ry="1108"></ellipse><ellipse cx="300000" cy="173334" rx="1107" ry="1108"></ellipse><ellipse cx="300000" cy="216667" rx="1107" ry="1108"></ellipse><ellipse cx="300000" cy="260000" rx="1107" ry="1108"></ellipse></g></g></g></svg></g>
        </pattern>
    </defs>
    <rect id="previewSVGrect" fill="url(#previewPattern)" x="0" y="0" width="4000" height="2000" fill-opacity="1"></rect>
</svg>